<svg preserveAspectRatio="none" overflow="visible" style="display: block;" width="30" height="30" viewBox="0 0 30 30" fill="none" xmlns="http://www.w3.org/2000/svg">
<g id="Warning">
<path id="Vector" d="M12.8571 4.28571C13.0744 3.90973 13.3868 3.59753 13.763 3.38049C14.1391 3.16344 14.5657 3.04918 15 3.04918C15.4343 3.04918 15.8609 3.16344 16.237 3.38049C16.6132 3.59753 16.9256 3.90973 17.1429 4.28571L27.8571 23.0357C28.0838 23.4128 28.2059 23.8435 28.2107 24.2835C28.2156 24.7234 28.1031 25.1567 27.8848 25.5388C27.6665 25.9208 27.3503 26.2377 26.9688 26.4569C26.5873 26.676 26.1543 26.7896 25.7143 26.7857H4.28571C3.84575 26.7896 3.41271 26.676 3.0312 26.4569C2.6497 26.2377 2.33351 25.9208 2.11522 25.5388C1.89693 25.1567 1.78441 24.7234 1.78927 24.2835C1.79413 23.8435 1.91618 23.4128 2.14286 23.0357L12.8571 4.28571Z" fill="#F59E0B"/>
<g id="Vector_2">
<path d="M15 10.7143V18.2143ZM15 22.5H15.0107Z" fill="black"/>
<path d="M15 10.7143V18.2143M15 22.5H15.0107" stroke="white" stroke-width="2" stroke-linecap="round"/>
</g>
</g>
</svg>
